<svg xmlns="http://www.w3.org/2000/svg" viewBox="0 0 680 331" width="680" height="331" role="img" aria-label="编码质量盲评得分。Claude Opus 5 4.22；Mistral Large 4 3.74；GLM-5.3 3.60；Kimi K3 3.59；GLM-5.2 3.40" font-family="system-ui, -apple-system, &quot;PingFang SC&quot;, &quot;Hiragino Sans GB&quot;, &quot;Microsoft YaHei&quot;, &quot;Noto Sans CJK SC&quot;, sans-serif">
<rect x="0.5" y="0.5" width="679" height="330" rx="10" fill="#fcfcfb" stroke="rgba(11,11,11,0.10)"/>
<text x="24.0" y="41.0" font-size="17" font-weight="600" fill="#0b0b0b" text-anchor="start">编码质量盲评得分</text>
<text x="24.0" y="63.0" font-size="13" font-weight="400" fill="#52514e" text-anchor="start">专业标注员按 1 至 5 分打分，隐去模型名称</text>
<rect x="24" y="84" width="12" height="12" rx="3" fill="#2a78d6"/>
<text x="42.0" y="94.0" font-size="12.5" font-weight="400" fill="#52514e" text-anchor="start">Mistral Large 4 预览版</text>
<rect x="201.00000000000003" y="84" width="12" height="12" rx="3" fill="#86b6ef"/>
<text x="219.0" y="94.0" font-size="12.5" font-weight="400" fill="#52514e" text-anchor="start">对照模型</text>
<g><title>Claude Opus 5：4.22</title>
<path d="M141.1,122.0 h474.9 a4,4 0 0 1 4,4 v10.0 a4,4 0 0 1 -4,4 h-474.9 z" fill="#86b6ef"/>
</g>
<text x="24.0" y="135.5" font-size="13.5" font-weight="400" fill="#0b0b0b" text-anchor="start">Claude Opus 5</text>
<text x="628.0" y="135.5" font-size="13" font-weight="400" fill="#52514e" text-anchor="start">4.22</text>
<g><title>Mistral Large 4：3.74</title>
<path d="M141.1,156.0 h420.4 a4,4 0 0 1 4,4 v10.0 a4,4 0 0 1 -4,4 h-420.4 z" fill="#2a78d6"/>
</g>
<text x="24.0" y="169.5" font-size="13.5" font-weight="600" fill="#0b0b0b" text-anchor="start">Mistral Large 4</text>
<text x="573.5" y="169.5" font-size="13" font-weight="400" fill="#52514e" text-anchor="start">3.74</text>
<g><title>GLM-5.3：3.60</title>
<path d="M141.1,190.0 h404.5 a4,4 0 0 1 4,4 v10.0 a4,4 0 0 1 -4,4 h-404.5 z" fill="#86b6ef"/>
</g>
<text x="24.0" y="203.5" font-size="13.5" font-weight="400" fill="#0b0b0b" text-anchor="start">GLM-5.3</text>
<text x="557.6" y="203.5" font-size="13" font-weight="400" fill="#52514e" text-anchor="start">3.60</text>
<g><title>Kimi K3：3.59</title>
<path d="M141.1,224.0 h403.4 a4,4 0 0 1 4,4 v10.0 a4,4 0 0 1 -4,4 h-403.4 z" fill="#86b6ef"/>
</g>
<text x="24.0" y="237.5" font-size="13.5" font-weight="400" fill="#0b0b0b" text-anchor="start">Kimi K3</text>
<text x="556.5" y="237.5" font-size="13" font-weight="400" fill="#52514e" text-anchor="start">3.59</text>
<g><title>GLM-5.2：3.40</title>
<path d="M141.1,258.0 h381.8 a4,4 0 0 1 4,4 v10.0 a4,4 0 0 1 -4,4 h-381.8 z" fill="#86b6ef"/>
</g>
<text x="24.0" y="271.5" font-size="13.5" font-weight="400" fill="#0b0b0b" text-anchor="start">GLM-5.2</text>
<text x="535.0" y="271.5" font-size="13" font-weight="400" fill="#52514e" text-anchor="start">3.40</text>
<line x1="141.14000000000004" y1="114" x2="141.14000000000004" y2="284" stroke="#c3c2b7" stroke-width="1"/>
<text x="24.0" y="307.0" font-size="11.5" font-weight="400" fill="#898781" text-anchor="start">数据来自 Mistral 官方博客，评测由 Mistral 委托 Surge AI 进行，未经独立复现。</text>
</svg>
