<svg xmlns="http://www.w3.org/2000/svg" viewBox="0 0 680 544" width="680" height="544" role="img" aria-label="Ataraxos 怎样在隐藏信息下选走法。自我对弈训练策略 → 信念网络猜身份 → 采样可能布局 → 逐一推演候选走法 → 选出走法" font-family="system-ui, -apple-system, &quot;PingFang SC&quot;, &quot;Hiragino Sans GB&quot;, &quot;Microsoft YaHei&quot;, &quot;Noto Sans CJK SC&quot;, sans-serif">
<rect x="0.5" y="0.5" width="679" height="543" rx="10" fill="#fcfcfb" stroke="rgba(11,11,11,0.10)"/>
<text x="24.0" y="41.0" font-size="17" font-weight="600" fill="#0b0b0b" text-anchor="start">Ataraxos 怎样在隐藏信息下选走法</text>
<text x="24.0" y="63.0" font-size="13" font-weight="400" fill="#52514e" text-anchor="start">根据论文和 Ars Technica 的报道整理</text>
<rect x="24" y="94.0" width="632" height="63" rx="8" fill="#f3f2ee"/>
<circle cx="47" cy="118.0" r="11" fill="#2a78d6"/>
<text x="47.0" y="122.5" font-size="12.5" font-weight="600" fill="#ffffff" text-anchor="middle">1</text>
<text x="70.0" y="123.0" font-size="14" font-weight="600" fill="#0b0b0b" text-anchor="start">自我对弈训练策略</text>
<text x="70.0" y="143.0" font-size="12.5" font-weight="400" fill="#52514e" text-anchor="start">布阵网络和走子网络通过自我对弈强化学习，训练早期大步调整、后期小步调整。</text>
<line x1="47" y1="160.0" x2="47" y2="174.0" stroke="#898781" stroke-width="1.5"/>
<path d="M43,170.0 L47,176.0 L51,170.0" fill="none" stroke="#898781" stroke-width="1.5" stroke-linejoin="round"/>
<rect x="24" y="179.0" width="632" height="63" rx="8" fill="#eaf2fd" stroke="#2a78d6" stroke-width="1"/>
<circle cx="47" cy="203.0" r="11" fill="#2a78d6"/>
<text x="47.0" y="207.5" font-size="12.5" font-weight="600" fill="#ffffff" text-anchor="middle">2</text>
<text x="70.0" y="208.0" font-size="14" font-weight="600" fill="#0b0b0b" text-anchor="start">信念网络猜身份</text>
<text x="70.0" y="228.0" font-size="12.5" font-weight="400" fill="#52514e" text-anchor="start">根据对手至今的走法，推测其每个未暴露棋子的类型。</text>
<line x1="47" y1="245.0" x2="47" y2="259.0" stroke="#898781" stroke-width="1.5"/>
<path d="M43,255.0 L47,261.0 L51,255.0" fill="none" stroke="#898781" stroke-width="1.5" stroke-linejoin="round"/>
<rect x="24" y="264.0" width="632" height="63" rx="8" fill="#f3f2ee"/>
<circle cx="47" cy="288.0" r="11" fill="#2a78d6"/>
<text x="47.0" y="292.5" font-size="12.5" font-weight="600" fill="#ffffff" text-anchor="middle">3</text>
<text x="70.0" y="293.0" font-size="14" font-weight="600" fill="#0b0b0b" text-anchor="start">采样可能布局</text>
<text x="70.0" y="313.0" font-size="12.5" font-weight="400" fill="#52514e" text-anchor="start">不枚举全部布局，只按信念网络采样若干种可能的对手棋子分布。</text>
<line x1="47" y1="330.0" x2="47" y2="344.0" stroke="#898781" stroke-width="1.5"/>
<path d="M43,340.0 L47,346.0 L51,340.0" fill="none" stroke="#898781" stroke-width="1.5" stroke-linejoin="round"/>
<rect x="24" y="349.0" width="632" height="63" rx="8" fill="#f3f2ee"/>
<circle cx="47" cy="373.0" r="11" fill="#2a78d6"/>
<text x="47.0" y="377.5" font-size="12.5" font-weight="600" fill="#ffffff" text-anchor="middle">4</text>
<text x="70.0" y="378.0" font-size="14" font-weight="600" fill="#0b0b0b" text-anchor="start">逐一推演候选走法</text>
<text x="70.0" y="398.0" font-size="12.5" font-weight="400" fill="#52514e" text-anchor="start">在每种布局下向前推演，单块 H100 上平均每步约 1.26 秒。</text>
<line x1="47" y1="415.0" x2="47" y2="429.0" stroke="#898781" stroke-width="1.5"/>
<path d="M43,425.0 L47,431.0 L51,425.0" fill="none" stroke="#898781" stroke-width="1.5" stroke-linejoin="round"/>
<rect x="24" y="434.0" width="632" height="63" rx="8" fill="#f3f2ee"/>
<circle cx="47" cy="458.0" r="11" fill="#2a78d6"/>
<text x="47.0" y="462.5" font-size="12.5" font-weight="600" fill="#ffffff" text-anchor="middle">5</text>
<text x="70.0" y="463.0" font-size="14" font-weight="600" fill="#0b0b0b" text-anchor="start">选出走法</text>
<text x="70.0" y="483.0" font-size="12.5" font-weight="400" fill="#52514e" text-anchor="start">综合各布局下的推演结果决定这一步怎么走。</text>
<text x="24.0" y="520.0" font-size="11.5" font-weight="400" fill="#898781" text-anchor="start">来源为论文 arXiv 2511.07312 与 Ars Technica 报道。</text>
</svg>
